<svg width="586" height="138" viewBox="0 0 586 138" fill="none" xmlns="http://www.w3.org/2000/svg">
<path d="M184.719 53.9666C182.791 53.9666 181.206 54.7982 179.965 56.4576C178.723 58.1208 178.1 60.0151 178.1 62.1482V69.8598H212.314V78.7424H178.1V92.484H169.687V61.6335C169.687 56.9573 171.101 53.0344 173.931 49.8535C176.761 46.6763 180.352 45.084 184.708 45.084H212.598V53.9666H184.723H184.719Z" fill="url(#paint0_linear_17_48859)"/>
<path d="M277.957 92.3871V67.3316H244.954V92.3871H236.542V44.9908H244.954V58.4527H277.957V44.9908H286.369V92.3871H277.957Z" fill="url(#paint1_linear_17_48859)"/>
<path d="M323.783 92.4803C319.42 92.4803 315.821 90.8917 312.987 87.7145C310.149 84.5374 308.732 80.6107 308.732 75.9345V61.6298C308.732 56.9536 310.149 53.0306 312.987 49.8497C315.821 46.6726 319.424 45.0803 323.783 45.0803H351.736V53.9629H323.783C321.851 53.9629 320.263 54.7982 319.017 56.4613C317.768 58.1245 317.149 60.03 317.149 62.1631V65.1799H351.456V74.0625H317.149V75.5429C317.149 77.6424 317.772 79.5106 319.017 81.1439C320.263 82.781 321.851 83.5977 323.783 83.5977H351.736V92.4803H323.783Z" fill="url(#paint2_linear_17_48859)"/>
<path d="M414.574 92.3871V62.0027C414.574 59.9443 413.903 58.2028 412.564 56.7671C411.222 55.3352 409.555 54.6155 407.564 54.6155H388.586C386.591 54.6155 384.925 55.3315 383.586 56.7671C382.243 58.2028 381.576 59.9443 381.576 62.0027V92.3871H373.163V62.0027C373.163 57.3265 374.625 53.4483 377.556 50.3644C380.483 47.2804 384.16 45.7366 388.586 45.7366H407.564C411.986 45.7366 415.663 47.3886 418.594 50.6925C421.521 53.9965 422.987 57.9828 422.987 62.659V92.3871H414.574Z" fill="url(#paint3_linear_17_48859)"/>
<path d="M447.125 92.3871V44.9908H454.136V92.3871H447.125Z" fill="url(#paint4_linear_17_48859)"/>
<path d="M522.963 92.3871H517.149L498.787 75.1551L480.429 92.3871H474.541L474.448 85.8239L492.235 69.1252L474.448 52.3035L474.541 45.7366H480.429L498.791 62.9723L517.153 45.7366H522.966L523.06 52.3743L505.35 69.1252L523.06 85.7493L522.966 92.3833L522.963 92.3871Z" fill="url(#paint5_linear_17_48859)"/>
<path d="M35.8702 93.5654C0.615781 85.7941 -11.5857 42.0262 12.5898 15.811C31.1269 -4.90393 64.0022 -5.32905 83.0465 14.9197C92.1976 24.5332 96.926 38.547 95.0913 51.5204C94.711 42.9063 92.2461 34.5718 87.7675 27.5798C71.5349 1.81955 35.0126 -0.992158 15.5991 22.6426C-3.72111 46.6241 6.83584 82.4007 35.8702 93.5654Z" fill="url(#paint6_linear_17_48859)"/>
<path d="M91.0751 76.4342C87.8122 78.0377 84.4188 79.3764 80.9918 80.6107C76.8152 82.1098 73.4814 83.8885 70.8525 85.8463C66.3888 89.1689 63.9425 93.0098 62.8238 96.9551V96.9775C62.7791 97.1379 62.7306 97.2908 62.697 97.4511C62.7679 96.6195 64.5093 75.7741 91.9999 59.6348C92.0447 59.6124 92.1043 59.59 92.1491 59.5527C128.384 40.9112 125.96 17.5375 125.96 17.5375C145.721 45.7329 107.341 68.4204 91.0751 76.4267V76.4342Z" fill="url(#paint7_linear_17_48859)"/>
<path d="M94.7406 134.932C88.3378 137.676 82.5802 137.896 77.7846 136.998C69.9984 135.521 63.2823 130.617 59.0983 123.905C56.8497 120.295 55.1978 116.846 54.0455 113.568C45.2673 88.479 65.9635 72.94 74.8797 67.5963C75.7896 67.0556 76.7144 66.5596 77.6616 66.0972C78.7691 65.5565 79.8878 65.0605 81.0289 64.6093C85.0302 63.0058 88.6772 61.3464 91.9998 59.6385C64.5092 75.7778 62.7677 96.6233 62.6969 97.4548C61.6826 101.389 61.9585 105.416 62.8349 109.093C62.8349 109.104 62.8349 109.116 62.846 109.127C65.5011 120.318 73.8878 129.349 84.7281 133.157C87.7971 134.242 91.1757 134.958 94.7406 134.932Z" fill="url(#paint8_linear_17_48859)"/>
<path d="M97.2242 90.9439C96.2434 91.2907 95.2515 91.5667 94.2596 91.8538C90.5119 92.9166 79.1122 96.5934 73.183 103.746C73.2874 103.295 76.2967 90.571 95.6543 81.2745C95.699 81.2521 95.7475 81.2297 95.7922 81.2185C97.0974 80.6629 98.4436 80.0774 99.8308 79.4286C110.526 74.469 122.891 66.623 126.583 55.8386C126.583 55.8386 128.578 79.9618 97.2242 90.9439Z" fill="url(#paint9_linear_17_48859)"/>
<path d="M95.6545 81.2782C76.297 90.5747 73.2876 103.298 73.1832 103.749V103.761C70.4386 107.072 68.8575 111.111 69.745 115.977C69.745 115.977 58.185 95.3293 82.4462 85.9022C82.4462 85.9022 88.2262 84.3696 95.6545 81.2782Z" fill="url(#paint10_linear_17_48859)"/>
<path d="M125.617 76.4379C120.878 83.717 113.621 91.9284 99.3277 96.9365C98.3133 97.2945 97.355 97.5704 96.419 97.8352L96.0275 97.9508C88.0547 100.211 82.3903 103.175 78.7246 107.042C76.696 109.164 75.8309 111.666 75.9912 114.922C76.0024 114.966 76.5208 121.231 80.9173 124.356L80.261 125.303C75.4058 121.854 74.8725 115.269 74.8502 114.989C74.6637 111.435 75.6594 108.586 77.8856 106.244C81.7042 102.228 87.5401 99.1516 95.7217 96.8433L96.102 96.7277C97.0231 96.4629 97.9591 96.187 98.9398 95.8402C113.073 90.8917 121.008 83.579 125.621 76.4379H125.617Z" fill="url(#paint11_linear_17_48859)"/>
<path d="M47.1805 93.0247C46.2818 96.7277 45.9685 100.513 46.2445 104.342C42.3924 95.9781 44.2271 87.2447 44.2271 87.2447C54.4484 31.6893 16.4009 45.2891 16.4009 45.2891L29.9336 31.0441C32.667 28.1728 36.4632 26.532 40.4197 26.532H48.1388C51.7262 26.532 55.1756 25.2044 57.8418 22.7955L63.6442 17.545L59.3297 27.7887C57.3683 32.4127 57.9574 37.7229 60.8773 41.8174L74.686 61.1413C73.7164 61.6261 72.7953 62.122 71.919 62.6516C64.3155 67.2085 50.9916 77.221 47.1879 93.0247H47.1805Z" fill="url(#paint12_linear_17_48859)"/>
<path d="M174.032 120.568V127H171.872V110.2H179.24C180.792 110.2 182.088 110.696 183.128 111.688C184.168 112.68 184.688 113.912 184.688 115.384C184.688 116.856 184.168 118.088 183.128 119.08C182.088 120.072 180.792 120.568 179.24 120.568H174.032ZM179.24 112.216H174.032V118.552H179.24C180.152 118.552 180.912 118.248 181.52 117.64C182.128 117.032 182.432 116.28 182.432 115.384C182.432 114.472 182.128 113.72 181.52 113.128C180.912 112.52 180.152 112.216 179.24 112.216ZM189.353 119.944V127H187.337V114.52H189.353V116.632C190.297 115.048 191.777 114.256 193.793 114.256H194.129V116.488C193.873 116.392 193.577 116.344 193.241 116.344C192.137 116.344 191.217 116.688 190.481 117.376C189.729 118.08 189.353 118.936 189.353 119.944ZM196.951 125.416C195.719 124.152 195.103 122.6 195.103 120.76C195.103 118.904 195.719 117.36 196.951 116.128C198.199 114.88 199.751 114.256 201.607 114.256C203.463 114.256 205.015 114.88 206.263 116.128C207.511 117.36 208.135 118.904 208.135 120.76C208.135 122.616 207.511 124.168 206.263 125.416C204.999 126.648 203.447 127.264 201.607 127.264C199.767 127.264 198.215 126.648 196.951 125.416ZM201.607 125.248C202.871 125.248 203.927 124.824 204.775 123.976C205.623 123.096 206.047 122.024 206.047 120.76C206.047 119.48 205.623 118.416 204.775 117.568C203.927 116.704 202.871 116.272 201.607 116.272C200.343 116.272 199.295 116.704 198.463 117.568C197.615 118.416 197.191 119.48 197.191 120.76C197.191 122.024 197.615 123.096 198.463 123.976C199.311 124.824 200.359 125.248 201.607 125.248ZM216.388 127.264C214.644 127.264 213.18 126.648 211.996 125.416C210.828 124.184 210.244 122.632 210.244 120.76C210.244 118.888 210.828 117.344 211.996 116.128C213.164 114.88 214.628 114.256 216.388 114.256C218.26 114.256 219.78 114.936 220.948 116.296V114.52H222.964V126.472C222.964 128.248 222.356 129.72 221.14 130.888C219.908 132.072 218.412 132.664 216.652 132.664C215.436 132.664 214.292 132.36 213.22 131.752C212.18 131.144 211.42 130.376 210.94 129.448L212.956 128.8C213.292 129.344 213.788 129.784 214.444 130.12C215.116 130.472 215.828 130.648 216.58 130.648C217.812 130.648 218.852 130.248 219.7 129.448C220.548 128.648 220.964 127.656 220.948 126.472V125.224C219.78 126.584 218.26 127.264 216.388 127.264ZM216.604 116.272C215.404 116.272 214.388 116.704 213.556 117.568C212.74 118.416 212.332 119.48 212.332 120.76C212.332 122.04 212.74 123.112 213.556 123.976C214.404 124.824 215.42 125.248 216.604 125.248C217.82 125.248 218.836 124.824 219.652 123.976C220.484 123.128 220.9 122.056 220.9 120.76C220.9 119.464 220.484 118.4 219.652 117.568C218.836 116.704 217.82 116.272 216.604 116.272ZM228.376 119.944V127H226.36V114.52H228.376V116.632C229.32 115.048 230.8 114.256 232.816 114.256H233.152V116.488C232.896 116.392 232.6 116.344 232.264 116.344C231.16 116.344 230.24 116.688 229.504 117.376C228.752 118.08 228.376 118.936 228.376 119.944ZM240.27 114.256C242.142 114.256 243.662 114.936 244.83 116.296V114.52H246.846V127H244.83V125.224C243.662 126.584 242.142 127.264 240.27 127.264C238.526 127.264 237.062 126.648 235.878 125.416C234.71 124.184 234.126 122.632 234.126 120.76C234.126 118.888 234.71 117.344 235.878 116.128C237.046 114.88 238.51 114.256 240.27 114.256ZM240.486 116.272C239.286 116.272 238.27 116.704 237.438 117.568C236.622 118.416 236.214 119.48 236.214 120.76C236.214 122.04 236.622 123.112 237.438 123.976C238.286 124.824 239.302 125.248 240.486 125.248C241.702 125.248 242.718 124.824 243.534 123.976C244.366 123.128 244.782 122.056 244.782 120.76C244.782 119.464 244.366 118.4 243.534 117.568C242.718 116.704 241.702 116.272 240.486 116.272ZM250.243 127V114.52H252.259V116.344C253.203 114.952 254.571 114.256 256.363 114.256C257.259 114.256 258.075 114.472 258.811 114.904C259.563 115.336 260.139 115.92 260.539 116.656C260.811 116.176 261.235 115.696 261.811 115.216C262.579 114.576 263.627 114.256 264.955 114.256C266.363 114.256 267.531 114.696 268.459 115.576C269.387 116.456 269.851 117.56 269.851 118.888V127H267.835V119.44C267.835 118.512 267.531 117.736 266.923 117.112C266.315 116.488 265.547 116.176 264.619 116.176C263.611 116.176 262.763 116.496 262.075 117.136C261.403 117.76 261.067 118.536 261.067 119.464V127H259.051V119.44C259.051 118.512 258.739 117.736 258.115 117.112C257.507 116.488 256.739 116.176 255.811 116.176C254.803 116.176 253.955 116.496 253.267 117.136C252.595 117.76 252.259 118.536 252.259 119.464V127H250.243ZM273.235 127V114.52H275.251V116.344C276.195 114.952 277.563 114.256 279.355 114.256C280.251 114.256 281.067 114.472 281.803 114.904C282.555 115.336 283.131 115.92 283.531 116.656C283.803 116.176 284.227 115.696 284.803 115.216C285.571 114.576 286.619 114.256 287.947 114.256C289.355 114.256 290.523 114.696 291.451 115.576C292.379 116.456 292.843 117.56 292.843 118.888V127H290.827V119.44C290.827 118.512 290.523 117.736 289.915 117.112C289.307 116.488 288.539 116.176 287.611 116.176C286.603 116.176 285.755 116.496 285.067 117.136C284.395 117.76 284.059 118.536 284.059 119.464V127H282.043V119.44C282.043 118.512 281.731 117.736 281.107 117.112C280.499 116.488 279.731 116.176 278.803 116.176C277.795 116.176 276.947 116.496 276.259 117.136C275.587 117.76 275.251 118.536 275.251 119.464V127H273.235ZM301.723 114.256C303.595 114.256 305.115 114.936 306.283 116.296V114.52H308.299V127H306.283V125.224C305.115 126.584 303.595 127.264 301.723 127.264C299.979 127.264 298.515 126.648 297.331 125.416C296.163 124.184 295.579 122.632 295.579 120.76C295.579 118.888 296.163 117.344 297.331 116.128C298.499 114.88 299.963 114.256 301.723 114.256ZM301.939 116.272C300.739 116.272 299.723 116.704 298.891 117.568C298.075 118.416 297.667 119.48 297.667 120.76C297.667 122.04 298.075 123.112 298.891 123.976C299.739 124.824 300.755 125.248 301.939 125.248C303.155 125.248 304.171 124.824 304.987 123.976C305.819 123.128 306.235 122.056 306.235 120.76C306.235 119.464 305.819 118.4 304.987 117.568C304.171 116.704 303.155 116.272 301.939 116.272ZM311.696 127V109H313.712V116.296C314.88 114.936 316.392 114.256 318.248 114.256C320.008 114.256 321.472 114.88 322.64 116.128C323.824 117.36 324.416 118.904 324.416 120.76C324.416 122.6 323.824 124.152 322.64 125.416C321.456 126.648 319.992 127.264 318.248 127.264C316.392 127.264 314.88 126.584 313.712 125.224V127H311.696ZM318.032 116.272C316.832 116.272 315.816 116.704 314.984 117.568C314.168 118.416 313.76 119.48 313.76 120.76C313.76 122.04 314.168 123.112 314.984 123.976C315.832 124.824 316.848 125.248 318.032 125.248C319.248 125.248 320.264 124.824 321.08 123.976C321.912 123.128 322.328 122.056 322.328 120.76C322.328 119.464 321.912 118.4 321.08 117.568C320.264 116.704 319.248 116.272 318.032 116.272ZM329.181 127H327.165V109H329.181V127ZM344.747 121.456H334.019C334.163 122.576 334.659 123.512 335.507 124.264C336.339 125 337.363 125.368 338.579 125.368C340.163 125.368 341.395 124.768 342.275 123.568L344.243 124.192C343.667 125.152 342.875 125.904 341.867 126.448C340.875 126.992 339.779 127.264 338.579 127.264C336.691 127.264 335.107 126.648 333.827 125.416C332.563 124.168 331.931 122.616 331.931 120.76C331.931 118.904 332.547 117.36 333.779 116.128C335.011 114.88 336.539 114.256 338.363 114.256C340.203 114.256 341.731 114.88 342.947 116.128C344.179 117.36 344.795 118.904 344.795 120.76C344.795 120.808 344.779 121.04 344.747 121.456ZM334.043 119.824H342.707C342.515 118.752 342.011 117.864 341.195 117.16C340.395 116.472 339.435 116.128 338.315 116.128C337.227 116.128 336.291 116.472 335.507 117.16C334.723 117.848 334.235 118.736 334.043 119.824ZM349.254 126.448C349.254 126.88 349.174 127.296 349.014 127.696C348.854 128.112 348.67 128.448 348.462 128.704C348.254 128.976 348.022 129.224 347.766 129.448C347.526 129.672 347.342 129.824 347.214 129.904C347.086 129.984 346.998 130.04 346.95 130.072L346.278 129.4C346.39 129.32 346.502 129.2 346.614 129.04C346.774 128.88 346.958 128.616 347.166 128.248C347.39 127.864 347.494 127.536 347.478 127.264C347.126 127.216 346.83 127.056 346.59 126.784C346.35 126.496 346.23 126.168 346.23 125.8C346.23 125.4 346.366 125.072 346.638 124.816C346.91 124.544 347.254 124.408 347.67 124.408C348.134 124.408 348.51 124.6 348.798 124.984C349.102 125.352 349.254 125.84 349.254 126.448ZM369.994 113.68L367.858 114.304C367.714 113.664 367.298 113.128 366.61 112.696C365.938 112.248 365.146 112.024 364.234 112.024C363.226 112.024 362.394 112.272 361.738 112.768C361.082 113.248 360.754 113.856 360.754 114.592C360.754 115.392 361.202 116.016 362.098 116.464C362.802 116.8 363.882 117.152 365.338 117.52C366.522 117.824 367.442 118.136 368.098 118.456C369.634 119.176 370.442 120.432 370.522 122.224C370.522 123.728 369.946 124.944 368.794 125.872C367.674 126.8 366.218 127.264 364.426 127.264C362.81 127.264 361.434 126.888 360.298 126.136C359.162 125.4 358.442 124.44 358.138 123.256L360.298 122.608C360.426 123.344 360.874 123.96 361.642 124.456C362.426 124.936 363.354 125.176 364.426 125.176C365.546 125.176 366.482 124.92 367.234 124.408C367.986 123.88 368.362 123.208 368.362 122.392C368.362 121.56 367.962 120.936 367.162 120.52C366.458 120.152 365.65 119.856 364.738 119.632L363.73 119.368L362.794 119.08L361.81 118.744C361.762 118.728 361.69 118.704 361.594 118.672C361.514 118.624 361.41 118.576 361.282 118.528C361.154 118.464 361.042 118.408 360.946 118.36C360.546 118.168 360.074 117.824 359.53 117.328C358.986 116.784 358.666 115.92 358.57 114.736C358.57 113.312 359.098 112.16 360.154 111.28C361.226 110.384 362.578 109.936 364.21 109.936C365.682 109.936 366.938 110.288 367.978 110.992C369.034 111.68 369.706 112.576 369.994 113.68ZM385.121 118.024L383.105 118.624C382.737 117.904 382.201 117.336 381.497 116.92C380.809 116.488 380.033 116.272 379.169 116.272C377.905 116.272 376.857 116.704 376.025 117.568C375.177 118.416 374.753 119.48 374.753 120.76C374.753 122.024 375.177 123.096 376.025 123.976C376.873 124.824 377.921 125.248 379.169 125.248C380.033 125.248 380.809 125.04 381.497 124.624C382.201 124.192 382.737 123.616 383.105 122.896L385.121 123.496C384.609 124.664 383.817 125.584 382.745 126.256C381.689 126.928 380.497 127.264 379.169 127.264C377.329 127.264 375.777 126.648 374.513 125.416C373.281 124.152 372.665 122.6 372.665 120.76C372.665 118.904 373.281 117.36 374.513 116.128C375.761 114.88 377.313 114.256 379.169 114.256C380.497 114.256 381.689 114.592 382.745 115.264C383.817 115.936 384.609 116.856 385.121 118.024ZM393.177 114.256C395.049 114.256 396.569 114.936 397.737 116.296V114.52H399.753V127H397.737V125.224C396.569 126.584 395.049 127.264 393.177 127.264C391.433 127.264 389.969 126.648 388.785 125.416C387.617 124.184 387.033 122.632 387.033 120.76C387.033 118.888 387.617 117.344 388.785 116.128C389.953 114.88 391.417 114.256 393.177 114.256ZM393.393 116.272C392.193 116.272 391.177 116.704 390.345 117.568C389.529 118.416 389.121 119.48 389.121 120.76C389.121 122.04 389.529 123.112 390.345 123.976C391.193 124.824 392.209 125.248 393.393 125.248C394.609 125.248 395.625 124.824 396.441 123.976C397.273 123.128 397.689 122.056 397.689 120.76C397.689 119.464 397.273 118.4 396.441 117.568C395.625 116.704 394.609 116.272 393.393 116.272ZM405.165 127H403.149V109H405.165V127ZM414.059 114.256C415.931 114.256 417.451 114.936 418.619 116.296V114.52H420.635V127H418.619V125.224C417.451 126.584 415.931 127.264 414.059 127.264C412.315 127.264 410.851 126.648 409.667 125.416C408.499 124.184 407.915 122.632 407.915 120.76C407.915 118.888 408.499 117.344 409.667 116.128C410.835 114.88 412.299 114.256 414.059 114.256ZM414.275 116.272C413.075 116.272 412.059 116.704 411.227 117.568C410.411 118.416 410.003 119.48 410.003 120.76C410.003 122.04 410.411 123.112 411.227 123.976C412.075 124.824 413.091 125.248 414.275 125.248C415.491 125.248 416.507 124.824 417.323 123.976C418.155 123.128 418.571 122.056 418.571 120.76C418.571 119.464 418.155 118.4 417.323 117.568C416.507 116.704 415.491 116.272 414.275 116.272ZM424.032 127V109H426.048V116.296C427.216 114.936 428.728 114.256 430.584 114.256C432.344 114.256 433.808 114.88 434.976 116.128C436.16 117.36 436.752 118.904 436.752 120.76C436.752 122.6 436.16 124.152 434.976 125.416C433.792 126.648 432.328 127.264 430.584 127.264C428.728 127.264 427.216 126.584 426.048 125.224V127H424.032ZM430.368 116.272C429.168 116.272 428.152 116.704 427.32 117.568C426.504 118.416 426.096 119.48 426.096 120.76C426.096 122.04 426.504 123.112 427.32 123.976C428.168 124.824 429.184 125.248 430.368 125.248C431.584 125.248 432.6 124.824 433.416 123.976C434.248 123.128 434.664 122.056 434.664 120.76C434.664 119.464 434.248 118.4 433.416 117.568C432.6 116.704 431.584 116.272 430.368 116.272ZM441.517 127H439.501V109H441.517V127ZM457.083 121.456H446.355C446.499 122.576 446.995 123.512 447.843 124.264C448.675 125 449.699 125.368 450.915 125.368C452.499 125.368 453.731 124.768 454.611 123.568L456.579 124.192C456.003 125.152 455.211 125.904 454.203 126.448C453.211 126.992 452.115 127.264 450.915 127.264C449.027 127.264 447.443 126.648 446.163 125.416C444.899 124.168 444.267 122.616 444.267 120.76C444.267 118.904 444.883 117.36 446.115 116.128C447.347 114.88 448.875 114.256 450.699 114.256C452.539 114.256 454.067 114.88 455.283 116.128C456.515 117.36 457.131 118.904 457.131 120.76C457.131 120.808 457.115 121.04 457.083 121.456ZM446.379 119.824H455.043C454.851 118.752 454.347 117.864 453.531 117.16C452.731 116.472 451.771 116.128 450.651 116.128C449.563 116.128 448.627 116.472 447.843 117.16C447.059 117.848 446.571 118.736 446.379 119.824ZM461.446 125.824C461.446 126.24 461.31 126.584 461.038 126.856C460.766 127.128 460.422 127.264 460.006 127.264C459.59 127.264 459.246 127.128 458.974 126.856C458.702 126.584 458.566 126.24 458.566 125.824C458.566 125.408 458.702 125.064 458.974 124.792C459.246 124.52 459.59 124.384 460.006 124.384C460.422 124.384 460.766 124.528 461.038 124.816C461.31 125.088 461.446 125.424 461.446 125.824Z" fill="white"/>
<path d="M470.284 110.2H482.836V113.704H474.1V116.776H481.444V120.28H474.1V123.496H482.956V127H470.284V110.2ZM484.602 127V114.52H488.202V115.792C489.042 114.736 490.17 114.208 491.61 114.208C492.954 114.208 494.082 114.664 494.994 115.576C495.93 116.488 496.386 117.616 496.386 118.984V127H492.786V119.944C492.786 118.576 491.826 117.544 490.506 117.544C489.186 117.544 488.202 118.576 488.202 119.944V127H484.602ZM511.006 118.504L507.382 119.56C506.926 118.48 505.918 117.76 504.694 117.76C503.854 117.76 503.158 118.048 502.606 118.624C502.054 119.176 501.766 119.896 501.766 120.736C501.766 122.464 503.038 123.76 504.694 123.76C505.918 123.76 506.926 123.04 507.382 121.96L511.006 123.016C510.046 125.608 507.646 127.312 504.694 127.312C502.798 127.312 501.19 126.688 499.918 125.44C498.646 124.168 498.022 122.608 498.022 120.76C498.022 118.888 498.646 117.328 499.918 116.08C501.19 114.832 502.798 114.208 504.694 114.208C507.646 114.208 510.046 115.912 511.006 118.504ZM515.975 114.52V115.816C516.815 114.736 518.087 114.208 519.791 114.208V118.048C519.455 117.832 519.023 117.712 518.495 117.712C517.055 117.712 515.975 118.816 515.975 120.28V127H512.375V114.52H515.975ZM524.863 127.096L524.935 126.904L520.207 114.52H523.927L526.639 122.224L529.447 114.52H533.167L527.863 128.296C526.711 131.176 524.911 132.4 521.839 132.4H521.407V128.968H521.863C523.423 128.968 524.407 128.344 524.863 127.096ZM537.913 132.4H534.313V114.52H537.913V115.36C538.897 114.592 540.049 114.208 541.345 114.208C543.025 114.208 544.441 114.832 545.569 116.08C546.697 117.328 547.273 118.888 547.273 120.76C547.273 122.608 546.697 124.168 545.569 125.44C544.441 126.688 543.025 127.312 541.345 127.312C540.073 127.312 538.945 126.928 537.913 126.16V132.4ZM540.745 117.76C539.185 117.76 537.961 119.056 537.961 120.784C537.961 122.44 539.185 123.76 540.745 123.76C541.513 123.76 542.161 123.472 542.689 122.896C543.241 122.32 543.505 121.624 543.505 120.784C543.505 119.056 542.281 117.76 540.745 117.76ZM548.075 117.64V114.52H549.779V112.096H553.379V114.52H556.211V117.64H553.379V122.32C553.379 123.088 553.955 123.64 554.747 123.64H556.211V127H554.147C552.923 127 551.867 126.616 551.027 125.872C550.187 125.104 549.779 124.144 549.779 123.016V117.64H548.075ZM570.423 122.056H561.135C561.543 123.376 562.719 124.24 564.183 124.24C565.215 124.24 566.031 123.88 566.655 123.136L570.135 123.928C569.007 126.016 566.823 127.312 564.159 127.312C562.215 127.312 560.583 126.688 559.287 125.44C557.991 124.192 557.343 122.632 557.343 120.76C557.343 118.912 557.967 117.352 559.239 116.104C560.511 114.832 562.071 114.208 563.967 114.208C565.839 114.208 567.399 114.832 568.671 116.104C569.943 117.352 570.567 118.912 570.567 120.76C570.567 121.216 570.519 121.648 570.423 122.056ZM561.159 119.392H566.895C566.439 118.12 565.311 117.28 563.967 117.28C562.695 117.28 561.567 118.12 561.159 119.392ZM571.64 120.76C571.64 118.888 572.192 117.328 573.32 116.08C574.448 114.832 575.864 114.208 577.544 114.208C578.816 114.208 579.968 114.592 581 115.36V109H584.576V127H581V126.136C579.992 126.928 578.84 127.312 577.544 127.312C575.864 127.312 574.448 126.688 573.32 125.44C572.192 124.168 571.64 122.608 571.64 120.76ZM578.168 117.76C576.608 117.76 575.384 119.08 575.384 120.736C575.384 122.464 576.608 123.76 578.168 123.76C579.704 123.76 580.952 122.464 580.952 120.736C580.952 119.896 580.688 119.2 580.136 118.624C579.584 118.048 578.936 117.76 578.168 117.76Z" fill="#FA4A1A"/>
<defs>
<linearGradient id="paint0_linear_17_48859" x1="191.142" y1="45.084" x2="191.142" y2="92.484" gradientUnits="userSpaceOnUse">
<stop stop-color="#FC4A1A"/>
<stop offset="1" stop-color="#FC4A1A"/>
</linearGradient>
<linearGradient id="paint1_linear_17_48859" x1="261.456" y1="44.9908" x2="261.456" y2="92.3871" gradientUnits="userSpaceOnUse">
<stop stop-color="#FC4A1A"/>
<stop offset="1" stop-color="#FC4A1A"/>
</linearGradient>
<linearGradient id="paint2_linear_17_48859" x1="330.234" y1="45.0803" x2="330.234" y2="92.4803" gradientUnits="userSpaceOnUse">
<stop stop-color="#FC4A1A"/>
<stop offset="1" stop-color="#FC4A1A"/>
</linearGradient>
<linearGradient id="paint3_linear_17_48859" x1="398.075" y1="45.7366" x2="398.075" y2="92.3871" gradientUnits="userSpaceOnUse">
<stop stop-color="#FC4A1A"/>
<stop offset="1" stop-color="#FC4A1A"/>
</linearGradient>
<linearGradient id="paint4_linear_17_48859" x1="450.63" y1="44.9908" x2="450.63" y2="92.3871" gradientUnits="userSpaceOnUse">
<stop stop-color="#FC4A1A"/>
<stop offset="1" stop-color="#FC4A1A"/>
</linearGradient>
<linearGradient id="paint5_linear_17_48859" x1="498.754" y1="45.7366" x2="498.754" y2="92.3871" gradientUnits="userSpaceOnUse">
<stop stop-color="#FC4A1A"/>
<stop offset="1" stop-color="#FC4A1A"/>
</linearGradient>
<linearGradient id="paint6_linear_17_48859" x1="66.538" y1="66.3918" x2="13.9024" y2="13.7562" gradientUnits="userSpaceOnUse">
<stop stop-color="#F7B733"/>
<stop offset="1" stop-color="#FC4A1A"/>
</linearGradient>
<linearGradient id="paint7_linear_17_48859" x1="73.4964" y1="79.4547" x2="124.931" y2="35.616" gradientUnits="userSpaceOnUse">
<stop stop-color="#F7B733"/>
<stop offset="1" stop-color="#FC4A1A"/>
</linearGradient>
<linearGradient id="paint8_linear_17_48859" x1="67.3582" y1="134.566" x2="87.1744" y2="72.541" gradientUnits="userSpaceOnUse">
<stop stop-color="#F7B733"/>
<stop offset="1" stop-color="#FC4A1A"/>
</linearGradient>
<linearGradient id="paint9_linear_17_48859" x1="75.3346" y1="97.2758" x2="122.429" y2="67.6895" gradientUnits="userSpaceOnUse">
<stop stop-color="#F7B733"/>
<stop offset="1" stop-color="#FC4A1A"/>
</linearGradient>
<linearGradient id="paint10_linear_17_48859" x1="67.709" y1="114.888" x2="81.6855" y2="90.0527" gradientUnits="userSpaceOnUse">
<stop stop-color="#F7B733"/>
<stop offset="1" stop-color="#FC4A1A"/>
</linearGradient>
<linearGradient id="paint11_linear_17_48859" x1="77.8931" y1="116.581" x2="110.739" y2="90.254" gradientUnits="userSpaceOnUse">
<stop stop-color="#F7B733"/>
<stop offset="1" stop-color="#FC4A1A"/>
</linearGradient>
<linearGradient id="paint12_linear_17_48859" x1="61.9886" y1="72.0264" x2="32.13" y2="25.0665" gradientUnits="userSpaceOnUse">
<stop stop-color="#F7B733"/>
<stop offset="1" stop-color="#FC4A1A"/>
</linearGradient>
</defs>
</svg>
