<?xml version="1.0" encoding="UTF-8"?><svg id="Layer_2" xmlns="http://www.w3.org/2000/svg" viewBox="0 0 204.58 346.4"><defs><style>.cls-1{fill:#3d3d3d;}.cls-2{fill:#ffd797;}.cls-3{fill:#231f20;opacity:.15;}</style></defs><g id="shadow"><path class="cls-3" d="m183.95,10.35c-.54.16-1.11.26-1.7.26-2.98,0-5.47-2.12-6.03-4.95h-5.09c-.56,2.82-3.04,4.95-6.03,4.95s-5.47-2.12-6.03-4.95h-5.09c-.56,2.82-3.04,4.95-6.03,4.95s-5.47-2.12-6.03-4.95h-5.09c-.56,2.82-3.04,4.95-6.03,4.95s-5.47-2.12-6.03-4.95h-5.09c-.56,2.82-3.04,4.95-6.03,4.95s-5.47-2.12-6.03-4.95h-5.09c-.56,2.82-3.04,4.95-6.03,4.95s-5.47-2.12-6.03-4.95h-5.09c-.56,2.82-3.04,4.95-6.03,4.95s-5.47-2.12-6.03-4.95h-5.09c-.56,2.82-3.04,4.95-6.03,4.95s-5.47-2.12-6.03-4.95h-5.09c-.56,2.82-3.04,4.95-6.03,4.95s-5.47-2.12-6.03-4.95h-5.09c-.56,2.82-3.04,4.95-6.02,4.95-.6,0-1.16-.11-1.7-.26-2.13,9.43-10.55,16.48-20.62,16.48v298.41c10.08,0,18.49,7.05,20.62,16.48.54-.16,1.1-.27,1.7-.27,2.98,0,5.47,2.13,6.02,4.95h5.09c.56-2.82,3.04-4.95,6.03-4.95s5.47,2.13,6.03,4.95h5.09c.56-2.82,3.04-4.95,6.03-4.95s5.47,2.13,6.03,4.95h5.09c.56-2.82,3.04-4.95,6.03-4.95s5.47,2.13,6.03,4.95h5.09c.56-2.82,3.04-4.95,6.03-4.95s5.47,2.13,6.03,4.95h5.09c.56-2.82,3.04-4.95,6.03-4.95s5.47,2.13,6.03,4.95h5.09c.56-2.82,3.04-4.95,6.03-4.95s5.47,2.13,6.03,4.95h5.09c.56-2.82,3.04-4.95,6.03-4.95s5.47,2.13,6.03,4.95h5.09c.56-2.82,3.04-4.95,6.03-4.95s5.47,2.13,6.03,4.95h5.09c.56-2.82,3.04-4.95,6.03-4.95.59,0,1.16.11,1.7.27,2.13-9.43,10.55-16.48,20.62-16.48V26.83c-10.08,0-18.49-7.05-20.62-16.48Z"/></g><g id="tickets"><path class="cls-2" d="m178.28,4.68c-.54.16-1.11.26-1.7.26-2.98,0-5.47-2.12-6.03-4.95h-5.09c-.56,2.82-3.04,4.95-6.03,4.95s-5.47-2.12-6.03-4.95h-5.09c-.56,2.82-3.04,4.95-6.03,4.95s-5.47-2.12-6.03-4.95h-5.09c-.56,2.82-3.04,4.95-6.03,4.95s-5.47-2.12-6.03-4.95h-5.09c-.56,2.82-3.04,4.95-6.03,4.95s-5.47-2.12-6.03-4.95h-5.09c-.56,2.82-3.04,4.95-6.03,4.95s-5.47-2.12-6.03-4.95h-5.09c-.56,2.82-3.04,4.95-6.03,4.95s-5.47-2.12-6.03-4.95h-5.09c-.56,2.82-3.04,4.95-6.03,4.95s-5.47-2.12-6.03-4.95h-5.09c-.56,2.82-3.04,4.95-6.03,4.95s-5.47-2.12-6.03-4.95h-5.09c-.56,2.82-3.04,4.95-6.02,4.95-.6,0-1.16-.11-1.7-.26C18.49,14.11,10.08,21.16,0,21.16v298.41c10.08,0,18.49,7.05,20.62,16.48.54-.16,1.1-.27,1.7-.27,2.98,0,5.47,2.13,6.02,4.95h5.09c.56-2.82,3.04-4.95,6.03-4.95s5.47,2.13,6.03,4.95h5.09c.56-2.82,3.04-4.95,6.03-4.95s5.47,2.13,6.03,4.95h5.09c.56-2.82,3.04-4.95,6.03-4.95s5.47,2.13,6.03,4.95h5.09c.56-2.82,3.04-4.95,6.03-4.95s5.47,2.13,6.03,4.95h5.09c.56-2.82,3.04-4.95,6.03-4.95s5.47,2.13,6.03,4.95h5.09c.56-2.82,3.04-4.95,6.03-4.95s5.47,2.13,6.03,4.95h5.09c.56-2.82,3.04-4.95,6.03-4.95s5.47,2.13,6.03,4.95h5.09c.56-2.82,3.04-4.95,6.03-4.95s5.47,2.13,6.03,4.95h5.09c.56-2.82,3.04-4.95,6.03-4.95.59,0,1.16.11,1.7.27,2.13-9.43,10.55-16.48,20.62-16.48V21.16c-10.08,0-18.49-7.05-20.62-16.48Z"/><path class="cls-1" d="m20.56,26.76v286.28h157.78V26.76H20.56Zm153.96,3.82v162.64H24.38V30.58h150.14ZM24.38,231.91v-34.88h150.14v34.88H24.38Zm150.14,3.82v34.88H24.38v-34.88h150.14ZM24.38,309.23v-34.8h150.14v34.8H24.38Z"/><polygon class="cls-1" points="99.45 203.21 102.54 209.46 109.43 210.46 104.44 215.32 105.62 222.19 99.45 218.94 93.29 222.19 94.46 215.32 89.48 210.46 96.37 209.46 99.45 203.21"/><path class="cls-1" d="m48.21,285.84h-.14l-.13,11.53c0,.81.22,1.08.84,1.08l1.38-.03.05.11-.24,1.21s-1.7-.11-2.86-.11c-1.08,0-2.51.22-2.51.22l.13-1.24c1.11-.14,1.65-.59,1.67-1.7l.35-11.8c0-1.11-.54-1.48-2.35-1.67l-.08-.14.22-1s1.57.13,2.32.13c.89,0,1.81-.11,1.81-.11,4.48,6.96,9.07,13.39,9.07,13.39h.13v-10.93c0-.78-.3-1.16-.89-1.16-.49,0-1.03.03-1.03.03l-.05-.11.24-1.21s1.65.11,2.56.11c1.13,0,2.67-.22,2.67-.22l-.13,1.24c-1.24.16-1.81.65-1.84,1.7l-.38,15.17-.78.38c-5.26-8.21-10.04-14.87-10.04-14.87Z"/><path class="cls-1" d="m64.12,286.51c0-2.51,1.73-4.35,4.1-4.35,2.13,0,3.51,1.51,3.51,3.86,0,2.51-1.7,4.35-4.08,4.35-2.13,0-3.54-1.57-3.54-3.86Zm5.7.22c0-2.11-.78-3.32-2.05-3.32-1.11,0-1.75.92-1.75,2.54,0,2.11.78,3.32,2.05,3.32,1.11,0,1.75-.92,1.75-2.54Z"/><path class="cls-1" d="m81.02,293.29c0-4.21,2.78-7.29,6.56-7.29,3.4,0,5.78,2.67,5.78,6.53,0,4.29-2.75,7.42-6.53,7.42-3.48,0-5.8-2.67-5.8-6.67Zm10.82,0c0-3-2-5.1-4.83-5.1s-4.48,1.86-4.48,4.7,1.94,5.02,4.78,5.02,4.53-1.86,4.53-4.62Z"/><path class="cls-1" d="m96.48,293.29c0-4.21,2.78-7.29,6.56-7.29,3.4,0,5.78,2.67,5.78,6.53,0,4.29-2.75,7.42-6.53,7.42-3.48,0-5.8-2.67-5.8-6.67Zm10.82,0c0-3-2-5.1-4.83-5.1s-4.48,1.86-4.48,4.7,1.94,5.02,4.78,5.02,4.53-1.86,4.53-4.62Z"/><path class="cls-1" d="m111.95,293.29c0-4.21,2.78-7.29,6.56-7.29,3.4,0,5.78,2.67,5.78,6.53,0,4.29-2.75,7.42-6.53,7.42-3.48,0-5.8-2.67-5.8-6.67Zm10.82,0c0-3-2-5.1-4.83-5.1s-4.48,1.86-4.48,4.7,1.94,5.02,4.78,5.02,4.53-1.86,4.53-4.62Z"/><path class="cls-1" d="m127.42,293.29c0-4.21,2.78-7.29,6.56-7.29,3.4,0,5.78,2.67,5.78,6.53,0,4.29-2.75,7.42-6.53,7.42-3.48,0-5.8-2.67-5.8-6.67Zm10.82,0c0-3-2-5.1-4.83-5.1s-4.48,1.86-4.48,4.7,1.94,5.02,4.78,5.02,4.53-1.86,4.53-4.62Z"/><path class="cls-1" d="m143.35,298.71c2-.16,2.43-.7,2.43-3.08v-6.15c0-1.38-.54-1.54-1.46-1.54-.57,0-1.43.16-1.43.16l-.08-.08.11-1.13s1.59-.19,2.97-.41c2.67-.43,2.67-.49,2.73-.49l.16.46c-.7.59-.92,1.03-1,2.27-.11,2.86-.16,6.51-.16,7.88s.27,1.84,1.32,1.84c.65,0,1.43-.08,1.43-.08l.05.11-.24,1.24s-2.27-.08-3.59-.08-3.4.32-3.4.32l.16-1.24Z"/></g></svg>